<svg width="51" height="55" viewBox="0 0 51 55" fill="none" xmlns="http://www.w3.org/2000/svg">
<rect y="8.7262" width="27.8254" height="29.8011" fill="#394822"/>
<path d="M4.67681 8.72621C4.67681 8.72621 3.59222 1 12.8103 1C22.0284 1 22.0283 8.72621 22.0283 8.72621" stroke="black"/>
<path d="M31.8175 20.0444C32.4333 19.3527 33.5771 19.749 33.5818 20.6557L33.6253 29.0818C33.6274 29.4886 33.8836 29.8466 34.2709 29.9843L43.0259 33.0951C43.9611 33.4274 43.8545 34.7585 42.8742 34.9888L34.3765 36.985C33.9169 37.093 33.5864 37.4957 33.5793 37.9563L33.4567 45.9809C33.4423 46.9199 32.2265 47.342 31.6443 46.6102L25.9581 39.4618C25.7244 39.168 25.3373 39.0338 24.9598 39.1159L15.7774 41.1123C14.8373 41.3167 14.1909 40.2493 14.8139 39.5212L20.1381 33.2989C20.4438 32.9417 20.4625 32.431 20.1833 32.0671L15.0215 25.3378C14.426 24.5616 15.2431 23.4766 16.1839 23.7944L24.991 26.7688C25.3807 26.9004 25.8186 26.7828 26.0949 26.4725L31.8175 20.0444Z" fill="#9AFF00"/>
</svg>
